<svg width="150" height="125" xmlns="http://www.w3.org/2000/svg" viewBox="0 0 580 400"><defs><linearGradient spreadMethod="pad" y2="1" x2="0" y1="0" x1="0" id="a"><stop offset="0" stop-opacity="0" stop-color="0"></stop><stop offset="1"></stop></linearGradient></defs><path fill="#fff" d="M-1-1h582v402H-1z"></path><path fill="#b7b7b7" d="M-5-3.288h592v284H-5z"></path><path fill="#e2e2e2" d="M10.167 364.712h24v24h-24zM39.833 364.712h100v24h-100zM152.167 364.712h24v24h-24zM181.833 364.712h100v24h-100z"></path><path fill="#ff4081" class="mdx-preview-color-accent mdx-a-pink-fill" d="M512.333 365.008h57v24h-57z"></path><path fill="#565656" d="M10.5 294.713h559v24h-559zM10.5 324.713h235v24h-235z"></path><path fill-opacity=".4" fill="url(#a)" d="M-13.667 159.808h628.666v120.667H-13.667z"></path><path fill="#fff" d="M11 221.808h188.667v46H11z"></path><path stroke-linecap="null" stroke-linejoin="null" stroke-opacity="null" stroke="#000" fill="none" d="M638.333 249.808v-.666"></path><path fill="#e5e5e5" d="M5 356.475h570v1.333H5z"></path></svg>