<svg width="150" height="125" xmlns="http://www.w3.org/2000/svg" viewBox="0 0 819 512"><path fill="#fff" d="M-1-1h821v514H-1z"></path><path fill="#e5e5e5" d="M150.833 273.284h517.333v142.335H150.833z"></path><path fill="#b7b7b7" d="M162.999 322.047h150.997v85.331H162.999z"></path><path fill="#fff" d="M173.665 377.808h68.665v22h-68.665z"></path><path fill="none" stroke="#000" stroke-opacity="null" stroke-linejoin="null" stroke-linecap="null" d="M638.333 249.808v-.666"></path><path fill="#3f51b5" class="mdx-preview-color-main mdx-indigo-fill" d="M-9.833-9.717h848V240.95h-848z"></path><path fill="#e5e5e5" d="M150.833 214.283h517.333v49.333H150.833z"></path><path fill="#b7b7b7" d="M323.001 322.047h150.997v85.331H323.001z"></path><path fill="#fff" d="M333.667 377.808h68.665v22h-68.665z"></path><path fill="#b7b7b7" d="M483.003 322.047H634v85.331H483.003z"></path><path fill="#fff" d="M493.67 377.808h68.665v22H493.67z"></path><path fill="#b7b7b7" d="M644.005 322.047h24v85.331h-24z"></path><path fill="#fff" d="M654.672 377.808h14v22h-14z"></path><path fill="#565656" d="M162.981 283.515h105.008v30.002H162.981zM197.983 224.51h105.008v30.002H197.983z"></path><path fill="#b2b2b2" d="M161.481 224.343h30v30h-30z"></path><path fill="#fff" d="M300.5 92.712h218v40h-218zM11 12.712h33v33H11zM51 12.712h89v33H51zM775 12h33v33h-33z"></path><path fill="#b7b7b7" d="M150.5 428.047h518v85.331h-518z"></path></svg>