<svg width="150" height="125" xmlns="http://www.w3.org/2000/svg" viewBox="0 0 819 512">
    <path fill="#fff" d="M-1-1h821v514H-1z"></path>
    <path fill="#b7b7b7" d="M150.999 395.047h150.997v85.331H150.999z"></path>
    <path fill="#fff" d="M161.665 450.808h68.665v22h-68.665z"></path>
    <path fill="none" stroke="#000" stroke-opacity="null" stroke-linejoin="null"
        stroke-linecap="null" d="M638.333 249.808v-.666"></path>
    <path fill="#3f51b5" class="mdx-preview-color-main mdx-indigo-fill"
        d="M-9.833-9.717h848v301h-848z"></path>
    <path fill="#e5e5e5" d="M150.833 291.283h517.333v49.333H150.833z"></path>
    <path fill="#b7b7b7" d="M311.001 395.047h150.997v85.331H311.001z"></path>
    <path fill="#fff" d="M321.667 450.808h68.665v22h-68.665z"></path>
    <path fill="#b7b7b7" d="M471.003 395.047H622v85.331H471.003z"></path>
    <path fill="#fff" d="M480.67 450.808h68.665v22H480.67z"></path>
    <path fill="#b7b7b7" d="M631.005 395.047h37v85.331h-37z"></path>
    <path fill="#fff" d="M641.672 450.808h27v22h-27z"></path>
    <path fill="#565656"
        d="M150.981 356.515h105.008v30.002H150.981zM197.983 301.51h105.008v30.002H197.983z"></path>
    <path fill="#b2b2b2" d="M161.481 301.343h30v30h-30z"></path>
    <path fill="#fff"
        d="M300.5 138.049h218v40h-218zM11 12.712h33v33H11zM51 12.712h89v33H51zM775 12h33v33h-33z"></path>
    <path fill="#565656" d="M150.981 496.514h105.008v30.002H150.981z"></path>
</svg>