<svg width="150" height="125" xmlns="http://www.w3.org/2000/svg" viewBox="0 0 819 512"><path fill="#f7f7f7" d="M3-2h821v514H3V-2z"></path><path fill="#b7b7b7" d="M396.824 156.402h150.997v85.33H396.824v-85.33z"></path><path fill="#fff" d="M407.49 212.163h68.665v22H407.49v-22z"></path><path fill="none" stroke="#000" stroke-opacity="null" stroke-linejoin="null" stroke-linecap="null" d="M638.333 249.808v-.666"></path><path fill="#3f51b5" class="mdx-preview-color-main mdx-indigo-fill" d="M-10.547-10.717h339v531h-339v-531z" stroke="null"></path><path fill="#e5e5e5" d="M-.771-1.624h329.333v49.333H-.771V-1.624z" stroke="null"></path><path fill="#b7b7b7" d="M556.826 156.402h150.997v85.33H556.826v-85.33z"></path><path fill="#fff" d="M568.37 212.163h68.664v22H568.37v-22z"></path><path fill="#b7b7b7" d="M718.058 156.402h37v85.33h-37v-85.33z"></path><path fill="#fff" d="M728.725 212.163h27v22h-27v-22z"></path><path fill="#b2b2b2" d="M9.481 9.436h30v30h-30v-30z"></path><path fill="#565656" d="M396.991 109.498H502V139.5H396.991v-30.002z"></path><path d="M-260.105 464.842h33.074v32.685h-33.074v-32.685zm277.105 0h33.074v32.685H17v-32.685z" class="mdx-preview-color-accent mdx-a-pink-fill" fill="#ff4081"></path><path fill="#565656" d="M396.991 276.505H502v30.002H396.991v-30.002z"></path><defs><linearGradient spreadMethod="pad" y2="1" x2="0" y1="0" x1="0" id="a"><stop offset="0" stop-opacity="0" stop-color="0"></stop><stop offset="1"></stop></linearGradient></defs><g stroke="null"><path fill="#fff" d="M397.609 320.887h356.484v243.229H397.61V320.887z"></path><path fill="#b7b7b7" d="M396.493 319.504H754.68v171.833H396.493V319.504z"></path><path fill="#e2e2e2" d="M405.67 542.16h14.52v14.52h-14.52v-14.52zm17.95 0h60.504v14.52H423.62v-14.52zm67.967 0h14.52v14.52h-14.52v-14.52zm17.949 0h60.505v14.52h-60.505v-14.52z"></path><path fill="#ff4081" class="mdx-preview-color-accent mdx-a-pink-fill" d="M709.503 542.339h34.487v14.52h-34.487v-14.52z"></path><path fill="#565656" d="M405.871 499.807h338.221v14.521h-338.22v-14.52zm0 18.152h142.186v14.52H405.87v-14.52z"></path><path fill-opacity=".4" fill="url(#a)" d="M397.28 418.184h356.247v73.008H397.281v-73.008z"></path><path fill="#fff" d="M406.174 455.697h114.152v27.832H406.174v-27.833h0z"></path><path stroke="#000" stroke-linecap="null" stroke-linejoin="null" stroke-opacity="null" fill="none" d="M785.739 472.638v-.403"></path><path fill="#e5e5e5" d="M402.544 537.176h344.875v.807H402.544v-.807z"></path></g><path d="M80.986 195.497h165.007V275.5H80.986v-80.003z" fill="#fff" stroke-width="null" stroke-opacity="null" stroke="null"></path><path d="M88.448 249.333h150.476v1.761H88.448v-1.761z" fill="#999"></path><path d="M114.357 207.92h94.857v33.143h-94.857V207.92z" fill="#3f51b5" class="mdx-preview-color-main mdx-indigo-fill" stroke="null" stroke-width="null" stroke-opacity="null" fill-opacity="null"></path><path fill="#565656" d="M110.134 257.502h105.008v11.716H110.134v-11.716z" stroke="null"></path><path fill="#565656" d="M46.991 9.494H152v30.002H46.991V9.494z"></path><path stroke-opacity="null" stroke-width="null" stroke="null" fill="#ccc" d="M396.999 39.098h358v35h-358z"></path><g><title>Layer 2</title><path d="M-1-1h582v402H-1V-1z" fill="none"></path></g><g><title>background</title><path fill="none" d="M-1-1h582v402H-1z"></path></g></svg>