<svg width="150" height="120" xmlns="http://www.w3.org/2000/svg" viewBox="0 0 819 512"><defs><linearGradient id="a" x1="0" y1="0" x2="0" y2="1" spreadMethod="pad"><stop stop-color="0" stop-opacity="0" offset="0"></stop><stop offset="1"></stop></linearGradient></defs><path fill="#fff" d="M-1-1h821v514H-1z"></path><path fill="#b7b7b7" d="M11.667 11.713h389v237.333h-389z"></path><path fill="url(#a)" fill-opacity=".4" d="M11.667 128.142h389v120.667h-389z"></path><path fill="#fff" d="M27.333 191.475H216v46H27.333z"></path><path fill="none" stroke="#000" stroke-opacity="null" stroke-linejoin="null" stroke-linecap="null" d="M638.333 249.808v-.666"></path><path fill="#b7b7b7" d="M417.666 11.713h389v237.333h-389z"></path><path fill="url(#a)" fill-opacity=".4" d="M417.666 128.142h389v120.667h-389z"></path><path fill="#fff" d="M433.333 191.475H622v46H433.333z"></path><path fill="#b7b7b7" d="M11.667 262.712h389v237.333h-389z"></path><path fill="url(#a)" fill-opacity=".4" d="M11.667 379.141h389v120.667h-389z"></path><path fill="#fff" d="M27.333 442.475H216v46H27.333z"></path><path fill="#b7b7b7" d="M417.666 262.712h389v237.333h-389z"></path><path fill="url(#a)" fill-opacity=".4" d="M417.666 379.141h389v120.667h-389z"></path><path fill="#fff" d="M433.333 442.475H622v46H433.333z"></path></svg>