<svg width="150" height="125" xmlns="http://www.w3.org/2000/svg" viewBox="0 0 819 512"><path fill="#fff" d="M-1-1h821v514H-1z"></path><path fill="#ededed" d="M-27.201 276.685h866.734v254.686H-27.201z"></path><path stroke-linecap="null" stroke-linejoin="null" stroke-opacity="null" stroke="#000" fill="none" d="M638.333 249.808v-.666"></path><path fill="#3f51b5" class="mdx-preview-color-main mdx-indigo-fill" d="M-9.833-9.717h848v301h-848z"></path><path fill="#fff" d="M300.5 116.714h218v40h-218zM11 12.712h33v33H11zM51 12.712h89v33H51zM775 12h33v33h-33zM734.997 12h33v33h-33zM123.478 254.017h572.045v286.689H123.478z"></path><path fill="#565656" d="M145.5 278.712h528v15h-528zM145.5 302.712h528v15h-528zM145.5 326.712h528v15h-528zM145.5 350.712h528v15h-528zM145.5 374.712h237v15h-237zM145.5 449.712h528v15h-528zM145.5 473.712h528v15h-528zM145.5 497.712h528v15h-528z"></path><path fill="#3f51b5" class="mdx-preview-color-main mdx-indigo-fill" d="M145.5 408.712h71v24h-71z"></path></svg>