<svg width="150" height="125" xmlns="http://www.w3.org/2000/svg" viewBox="0 0 819 512"><path fill="none" d="M-1-1h582v402H-1z"></path><g><path d="M-1-1h821v514H-1V-1z" fill="#f7f7f7"></path><path d="M-27.2 276.7h866.7v254.7H-27.2V276.7z" fill="#f7f7f7"></path><path d="M300.5 78.7h218v40h-218v-40zM11 12.7h33v33H11v-33zm40 0h89v33H51v-33zm724-.7h33v33h-33V12zm-40 0h33v33h-33V12z" fill="#151515"></path><path d="M145.5 454.7h528v15h-528v-15zm0 24h528v15h-528v-15zm0 24h528v15h-528v-15zm0 24h528v15h-528v-15zm0 24h237v15h-237v-15z" fill="#565656"></path><path stroke="null" d="M145.5 219.7h528v218.4h-528V219.7z" fill="#b7b7b7"></path><path stroke-opacity="null" stroke-width="null" stroke="null" fill="#f7f7f7" d="M254 47.1h310v104H254z"></path><path stroke-opacity="null" stroke-width="null" stroke="null" fill="#151515" d="M145 115.1h218v40H145z"></path><path stroke-opacity="null" stroke-width="null" stroke="null" fill="#f7f7f7" d="M328 501.1h373v72H328z"></path></g></svg>