<svg width="150" height="125" xmlns="http://www.w3.org/2000/svg" viewBox="0 0 580 400"><path fill="none" d="M-1-1h582v402H-1z"></path><g><path d="M-1-1h582v402H-1V-1z" fill="#fff"></path><path d="M10.167 364.712h24v24h-24v-24zm29.666 0h100v24h-100v-24zm112.334 0h24v24h-24v-24zm29.666 0h100v24h-100v-24z" fill="#e2e2e2"></path><path d="M11.667 232.342H197v47H11.667v-47z" fill="#fff"></path><path stroke="null" d="M11.667 295.713h556.667v24H11.667v-24zm.166 30h235v24h-235v-24z" fill="#565656"></path><path stroke="null" stroke-opacity="null" stroke-width="null" class="mdx-preview-color-main mdx-indigo-fill" fill="#3f51b5" d="M11.667 203.277h316v46h-316z"></path><path d="M11.667 265.713h556.667v24H11.667v-24zm.166 30h235v24h-235v-24z" fill="#565656"></path><path stroke="null" stroke-opacity="null" stroke-width="null" fill="#b7b7b7" d="M11.666 8.609h556.75v178H11.666z"></path></g></svg>