<svg width="150" height="125" xmlns="http://www.w3.org/2000/svg" viewBox="0 0 819 512"><path fill="none" d="M-1-1h821v514H-1z"></path><g><path d="M-1-1h821v514H-1V-1z" fill="#f7f7f7"></path><path d="M163 493.5h105v30H163v-30zm35-59h105v30H198v-30z" fill="#565656"></path><path d="M150.8 337.3h517.4v142.3H150.8V337.3z" fill="#f7f7f7"></path><path d="M163 386h151v85.4H163V386z" fill="#b7b7b7"></path><path d="M173.7 441.8h68.6v22h-68.6v-22z" fill="#fff"></path><path d="M150.8 278.3h517.4v49.3H150.8v-49.3z" fill="#e5e5e5"></path><path d="M323 386h151v85.4H323V386z" fill="#b7b7b7"></path><path d="M333.7 441.8h68.6v22h-68.6v-22z" fill="#fff"></path><path d="M483 386h151v85.4H483V386z" fill="#b7b7b7"></path><path d="M493.7 441.8h68.6v22h-68.6v-22z" fill="#fff"></path><path d="M644 386h24v85.4h-24V386z" fill="#b7b7b7"></path><path d="M654.7 441.8h14v22h-14v-22z" fill="#fff"></path><path d="M163 347.5h105v30H163v-30zm35-59h105v30H198v-30z" fill="#565656"></path><path d="M161.5 288.3h30v30h-30v-30z" fill="#b2b2b2"></path><path d="M300.5 92.7h218v40h-218v-40zM11 12.7h33v33H11v-33zm40 0h89v33H51v-33zm724-.7h33v33h-33V12zM300.5 136.7h218v40h-218v-40zM11 56.7h33v33H11v-33zm40 0h89v33H51v-33zm724-.7h33v33h-33V56z" fill="#0f0f0f"></path><path stroke-opacity="null" stroke-width="null" stroke="null" fill="#f7f7f7" d="M-15 47.1h887v88H-15z"></path></g></svg>